<svg width="22" height="550" viewBox="0 0 22 550" fill="none" xmlns="http://www.w3.org/2000/svg">
<path d="M11 487L11 550" stroke="#0071e8"/>
<path d="M19 454H3" stroke="#0071e8"/>
<path d="M11 454L11 444" stroke="#0071e8"/>
<path d="M11 0L11 279" stroke="#0071e8"/>
<path d="M6.6 410.932L15 410.932L15 411.808L7.368 411.808L7.368 415.864L10.176 415.96C11.336 416 12.272 416.096 12.984 416.248C13.688 416.392 14.216 416.616 14.568 416.92C14.912 417.224 15.084 417.628 15.084 418.132C15.084 418.348 15.056 418.572 15 418.804L14.208 418.732C14.24 418.596 14.256 418.464 14.256 418.336C14.256 417.984 14.116 417.7 13.836 417.484C13.556 417.26 13.124 417.092 12.54 416.98C11.948 416.868 11.168 416.792 10.2 416.752L6.6 416.632L6.6 410.932ZM6.6 408.098L6.6 407.222L13.56 407.222L6.6 401.846L6.6 401.042L15 401.042L15 401.918L8.052 401.918L15 407.294L15 408.098L6.6 408.098ZM15.072 394.535C15.072 395.367 14.888 396.119 14.52 396.791C14.152 397.455 13.644 397.979 12.996 398.363C12.34 398.739 11.608 398.927 10.8 398.927C9.992 398.927 9.264 398.739 8.616 398.363C7.96 397.979 7.448 397.451 7.08 396.779C6.712 396.107 6.528 395.355 6.528 394.523C6.528 393.899 6.632 393.323 6.84 392.795C7.048 392.267 7.352 391.819 7.752 391.451L8.316 392.015C7.652 392.671 7.32 393.499 7.32 394.499C7.32 395.163 7.472 395.767 7.776 396.311C8.08 396.855 8.496 397.283 9.024 397.595C9.552 397.899 10.144 398.051 10.8 398.051C11.456 398.051 12.048 397.899 12.576 397.595C13.104 397.283 13.52 396.855 13.824 396.311C14.128 395.767 14.28 395.163 14.28 394.499C14.28 393.491 13.944 392.663 13.272 392.015L13.836 391.451C14.236 391.819 14.544 392.271 14.76 392.807C14.968 393.335 15.072 393.911 15.072 394.535ZM7.368 384.227L7.368 387.179L15 387.179L15 388.055L7.368 388.055L7.368 391.007L6.6 391.007L6.6 384.227L7.368 384.227ZM12.756 377.714L12.756 382.394L15 383.402L15 384.326L6.6 380.486L6.6 379.61L15 375.77L15 376.706L12.756 377.714ZM12.036 378.038L7.524 380.054L12.036 382.07L12.036 378.038ZM6.6 374.16L6.6 373.284L13.56 373.284L6.6 367.908L6.6 367.104L15 367.104L15 367.98L8.052 367.98L15 373.356L15 374.16L6.6 374.16ZM5.988 370.656C5.988 371.256 5.852 371.732 5.58 372.084C5.308 372.428 4.928 372.604 4.44 372.612L4.44 371.952C4.76 371.944 5.012 371.824 5.196 371.592C5.38 371.36 5.472 371.048 5.472 370.656C5.472 370.272 5.38 369.964 5.196 369.732C5.012 369.492 4.76 369.368 4.44 369.36L4.44 368.7C4.928 368.708 5.308 368.888 5.58 369.24C5.852 369.592 5.988 370.064 5.988 370.656ZM14.232 353.413L16.884 353.413L16.884 354.241L15 354.241L15 361.573L16.884 361.585L16.884 362.413L14.232 362.401L14.232 361.981C14.2 361.429 13.764 361.045 12.924 360.829C12.076 360.613 10.876 360.481 9.324 360.433L6.6 360.337L6.6 354.673L14.232 354.673L14.232 353.413ZM9.408 359.641C10.688 359.681 11.744 359.781 12.576 359.941C13.4 360.093 13.952 360.353 14.232 360.721L14.232 355.549L7.368 355.549L7.368 359.569L9.408 359.641ZM12.756 346.202L12.756 350.882L15 351.89L15 352.814L6.6 348.974L6.6 348.098L15 344.258L15 345.194L12.756 346.202ZM12.036 346.526L7.524 348.542L12.036 350.558L12.036 346.526ZM6.6 336.037L15 336.037L15 336.913L7.368 336.913L7.368 340.969L10.176 341.065C11.336 341.105 12.272 341.201 12.984 341.353C13.688 341.497 14.216 341.721 14.568 342.025C14.912 342.329 15.084 342.733 15.084 343.237C15.084 343.453 15.056 343.677 15 343.909L14.208 343.837C14.24 343.701 14.256 343.569 14.256 343.441C14.256 343.089 14.116 342.805 13.836 342.589C13.556 342.365 13.124 342.197 12.54 342.085C11.948 341.973 11.168 341.897 10.2 341.857L6.6 341.737L6.6 336.037ZM9.6 329.687C9.6 328.695 9.824 327.939 10.272 327.419C10.72 326.891 11.376 326.627 12.24 326.627C13.144 326.627 13.832 326.907 14.304 327.467C14.768 328.019 15 328.819 15 329.867L15 333.203L6.6 333.203L6.6 332.327L9.6 332.327L9.6 329.687ZM14.292 329.891C14.292 329.115 14.12 328.527 13.776 328.127C13.432 327.719 12.924 327.515 12.252 327.515C10.964 327.515 10.32 328.307 10.32 329.891L10.32 332.327L14.292 332.327L14.292 329.891ZM6.59999 314.388L15 314.388L15 324.684L6.6 324.684L6.6 323.808L14.232 323.808L14.232 319.968L6.59999 319.968L6.59999 319.092L14.232 319.092L14.232 315.264L6.59999 315.264L6.59999 314.388ZM14.232 305.619L15 305.619L15 311.559L6.59999 311.559L6.59999 305.799L7.36799 305.799L7.36799 310.671L10.356 310.671L10.356 306.327L11.112 306.327L11.112 310.671L14.232 310.671L14.232 305.619Z" fill="#0071e8"/>
<rect x="2.5" y="442.5" width="17" height="28" rx="8.5" stroke="#0071e8"/>
</svg>
