<svg width="172" height="89" viewBox="0 0 172 89" fill="none" xmlns="http://www.w3.org/2000/svg">
<path d="M67.7308 47.0309C67.864 46.7867 67.9528 46.6197 68.0416 46.4526L67.7456 46.0929L68.8259 45.4375L69.0183 45.5917C68.16 47.2364 67.3905 48.7141 66.399 50.603L66.177 50.5773C66.1622 50.4616 66.103 50.3331 66.0882 50.2175C66.0882 50.2046 66.0882 50.1918 66.0882 50.179L66.103 50.0762L67.7308 47.0309ZM65.6887 51.451C65.7627 51.6952 65.7627 51.9522 65.6887 52.1963C65.6739 52.2348 65.6739 52.2606 65.6591 52.2991L65.4371 52.646C65.2448 52.8645 64.8896 53.0572 64.5936 53.1472C64.5788 53.1472 64.564 53.16 64.5492 53.16C64.4605 53.1857 64.4013 53.1343 64.2237 53.0829L65.6887 51.451ZM67.3905 53.3527C68.7667 51.284 69.8026 48.9197 70.9716 46.7739C71.4007 45.9772 71.2676 45.4889 70.1873 45.1163C69.0331 44.7308 67.8196 44.4224 66.6062 44.1783C65.8367 44.0241 65.2448 44.4224 65.1412 44.9236C65.008 45.5789 64.4901 46.5426 64.1497 47.2108C63.9129 47.6733 63.7354 48.1616 63.4246 48.5985C62.4627 49.9477 61.4565 51.284 60.4354 52.6332C58.7632 54.7533 57.1206 56.8992 55.4041 58.9936C53.6431 61.1523 51.7637 63.2467 49.1593 64.8658C48.5969 65.2127 47.9754 65.4954 47.3243 65.8552C47.2651 65.6624 47.2355 65.5982 47.2503 65.5596C47.5907 64.4931 47.8866 63.4138 48.2862 62.373C48.6857 61.345 49.3221 60.3685 49.618 59.3277C49.914 58.3126 50.3727 57.3746 50.9942 56.4623C51.231 56.1154 51.4234 55.7299 51.5714 55.3444C53.4803 50.2817 57.9789 45.5917 59.5771 40.2336C59.6807 39.9123 59.5623 39.4369 59.2959 39.1542C58.0529 37.8307 55.478 37.1497 53.5395 37.6637C52.3113 37.9849 51.157 38.4218 50.0028 38.8587C49.396 39.09 49.1445 39.8095 49.4108 40.3492C49.6032 40.2593 49.7808 40.1565 49.9732 40.0922C51.2754 39.6168 52.5628 39.1157 53.8946 38.6788C54.6198 38.4475 54.8713 38.6274 54.7529 39.2056C54.6493 39.7067 54.5014 40.2079 54.2498 40.6576C52.9328 43.0476 51.4974 45.4118 50.2543 47.8275C48.9965 50.256 47.1763 52.479 46.318 55.0617C45.7409 56.8092 44.6755 58.4411 43.9356 60.15C43.2253 61.7691 42.8849 63.4652 42.9441 65.2255C42.9737 66.3049 43.8616 66.9731 45.0158 67.4485C46.1109 67.8854 47.2207 67.9881 48.301 67.4228C49.6032 66.7418 50.6391 65.868 51.5714 64.9043C52.8884 63.5423 54.2794 62.2316 55.626 60.8825C55.8184 60.6897 55.9516 60.4456 56.1144 60.2271C56.0552 60.2014 56.0108 60.1757 55.9516 60.15C54.9009 61.011 54.2646 62.1417 53.0364 62.8998C53.5691 62.1802 54.161 61.4992 54.7825 60.8311C55.0193 60.5741 55.3745 60.3556 55.5668 60.0858C56.0108 59.469 56.3807 58.8394 56.7803 58.2098C57.3722 57.2589 58.4081 56.5522 59.0148 55.5628C59.5475 54.7019 60.1986 53.8796 60.8793 53.0701C61.0421 53.0315 61.1605 52.9544 61.2641 52.8131C61.4417 52.5818 61.56 52.3119 61.7376 52.0807C62.0632 51.708 62.3887 51.3226 62.7143 50.9499C63.0399 50.5644 63.3654 50.179 63.7058 49.7935L63.8093 49.8449C63.2914 51.0913 62.7883 52.3377 62.2555 53.5712C60.9089 56.7578 60.7313 58.6852 59.8139 61.5378C59.6955 61.9233 59.5031 62.283 59.3699 62.6685C59.1776 63.1953 59.0148 63.735 58.852 64.2747C58.7484 64.6088 58.7188 64.9557 58.556 65.2641C58.1269 66.0865 58.9408 66.125 59.3847 66.9859C59.9175 68.001 62.0188 68.4893 63.0842 67.834C63.2174 67.7569 63.4098 67.7312 63.5578 67.6669C64.4753 67.2943 65.4519 66.9859 66.2658 66.5105C70.4537 62.9512 76.6689 49.7164 79.5841 44.1141C79.6877 43.8956 79.806 43.69 79.9096 43.4845C79.7024 43.4588 79.4953 43.4074 79.3177 43.356L79.3029 43.3817C75.707 49.832 70.3945 62.1931 64.1941 65.7524C64.0609 65.8166 63.9129 65.8552 63.6762 65.9323C63.765 65.1741 63.7797 64.4674 63.9573 63.7993C64.6824 60.9853 65.6147 56.0254 67.3905 53.3527ZM65.0524 55.4472C64.8896 55.036 65.1116 54.3678 65.4519 54.0338C65.4519 54.0209 65.4667 54.0209 65.4667 54.0081C65.5703 53.9053 65.7035 53.841 65.8367 53.841C65.7183 54.0852 65.5111 54.4321 65.4667 54.6634L65.4519 54.612L65.0524 55.4472ZM64.1793 55.9226L63.7354 56.9763L63.2914 57.3232L62.6995 57.6316C62.6255 57.0919 62.3887 57.3489 63.3654 56.4237C62.7143 55.9226 63.7354 54.522 64.7416 54.1623C64.7564 54.1494 64.7416 54.2265 64.7564 54.2393C64.786 54.3935 64.7712 54.3678 64.6972 54.5863L64.1793 55.9226ZM62.1964 58.0685L62.5219 58.0942L62.3443 58.9294L63.1138 58.6724C63.025 58.9679 62.7143 60.0858 62.4923 60.2785C62.3591 60.407 61.9596 60.5355 61.7524 60.6255L61.5304 60.4713L61.5896 60.3556C61.5896 60.3428 61.6044 60.3299 61.6044 60.3171C61.7672 59.9316 61.7376 59.9445 62.004 59.7389C62.1076 59.6618 62.1816 59.6104 62.226 59.469C62.2851 59.3148 62.226 59.1221 62.1964 58.9679C62.1668 58.6595 62.2112 58.3768 62.1964 58.0685Z" fill="black"/>
<path d="M21.6795 66.2277C21.5759 66.2148 21.4723 66.2148 21.3687 66.202C21.3687 66.4718 21.3539 66.7288 21.3539 66.9986C21.9163 66.7802 22.1974 66.5489 21.6795 66.2277ZM26.7404 85.1034C26.8736 84.6151 27.0216 84.114 27.1548 83.6257C27.1844 83.5358 27.2436 83.4715 27.2732 83.3816C27.6727 82.2251 28.0574 81.0558 28.4866 79.9122C29.0637 78.3832 29.6852 76.8541 30.3215 75.3379C30.3807 75.1965 30.6619 75.1323 30.8247 75.0295C30.8839 75.1837 31.0023 75.3507 31.0171 75.5049C31.0467 75.8133 31.1058 76.1474 30.9875 76.4301C30.7359 77.0597 30.4103 77.6636 30.0848 78.2547C29.8924 78.6016 29.4337 78.8714 29.8036 79.334C29.8332 79.3726 29.7444 79.4625 29.7296 79.5268C29.3597 80.5676 29.2413 81.3771 28.4718 82.1994C28.1758 82.5078 27.7911 82.7648 28.2942 83.2017C28.383 83.2788 28.383 83.4715 28.309 83.5615C27.9687 83.9726 27.7615 84.3581 27.7763 84.9106C27.7911 85.5788 27.4211 86.2341 27.214 86.8894C27.1104 87.2107 27.0068 87.5319 26.8736 87.8403C26.7552 88.0973 26.5332 88.2258 26.1189 88.0973C25.7785 87.9816 25.527 87.8531 25.675 87.5448C25.9709 86.9151 25.8081 86.1313 26.7404 85.7202C26.918 85.6431 26.9476 85.3604 27.0364 85.1805C26.9328 85.1419 26.8292 85.1162 26.7404 85.1034ZM30.6767 74.2071C30.9727 73.7574 31.165 73.4105 31.4166 73.0892C31.4906 72.9993 31.7422 72.935 31.8605 72.9736C31.9641 73.0121 32.0825 73.2049 32.0677 73.3077C31.9937 73.8345 31.5646 74.0915 30.6767 74.2071ZM31.7274 71.3674C31.9345 71.2132 32.1269 71.0462 32.3341 70.892C32.5265 71.1104 32.7188 71.316 32.926 71.5345C32.8668 71.573 32.8076 71.6116 32.7484 71.6501C32.4673 71.5987 32.1861 71.5602 31.9049 71.5088C31.8309 71.4574 31.7718 71.406 31.7274 71.3674ZM34.5834 65.7651C34.3762 66.0735 34.169 66.3819 33.9767 66.6903C33.8879 66.6517 33.7991 66.626 33.7103 66.5875C33.8731 66.2662 34.0359 65.945 34.1986 65.6237C34.3318 65.6623 34.4502 65.7137 34.5834 65.7651ZM23.2481 60.8695C23.5292 61.0237 23.7364 61.1265 24.0324 61.2935C24.1212 61.0365 24.1952 60.8438 24.2543 60.6511C22.9373 60.1756 22.8337 60.1114 23.3813 58.9421C23.8252 57.9912 23.9436 57.9527 25.157 58.4795C25.2458 58.2996 25.3346 58.1326 25.4234 57.9527C24.0472 57.6058 24.0324 57.6057 24.4763 56.565C24.6687 56.1152 24.8167 55.6012 25.7342 55.6655C25.7637 55.8839 25.7933 56.0895 25.8229 56.2951C25.8969 56.3208 25.9561 56.3337 26.0301 56.3594C26.2373 56.0124 26.4445 55.6784 26.622 55.3828C26.1929 55.2286 25.7933 55.1772 25.6898 55.0359C25.379 54.5476 25.8969 54.2778 26.2965 53.918C26.4149 54.1236 26.5184 54.2906 26.622 54.4577C27.3619 54.1364 27.3619 54.1236 26.2817 53.1856C26.5776 53.1727 26.7996 53.147 27.0364 53.147C27.7615 53.1727 27.8651 53.0699 27.5395 52.4789C27.3619 52.5431 27.1844 52.5945 26.8292 52.723C26.9624 52.209 27.0808 51.785 27.214 51.2453C27.5395 51.5023 27.7171 51.6437 28.0574 51.9135C28.6494 50.6799 29.2265 49.5235 29.774 48.3414C29.8036 48.2771 29.6408 48.1486 29.5373 48.0073C29.2265 48.3285 28.9749 48.6112 28.7086 48.881C28.605 48.8425 28.5162 48.8039 28.4126 48.7654C28.6494 48.0972 28.8565 47.4034 29.1525 46.748C29.7148 45.4888 30.3363 44.2296 30.9283 42.9832C31.0023 42.8418 31.091 42.6876 31.0762 42.5335C31.0614 42.0195 31.4166 41.8139 31.9345 41.8139C31.8901 41.4798 31.7422 41.1586 31.8014 40.863C32.2897 38.2161 33.7399 35.8261 34.687 33.3076C35.1901 31.9841 35.708 30.6735 36.226 29.3629C36.374 28.9774 36.6699 28.8103 37.2766 28.8103C38.7416 28.7975 40.1475 28.9774 41.5237 29.4271C43.0923 29.9411 43.7582 31.2132 43.0035 32.3439C42.5595 32.9992 41.9676 33.6031 41.5681 34.2713C40.8134 35.5434 40.2066 36.8797 39.4076 38.139C38.2977 39.8736 37.7206 41.7625 36.8623 43.5871C36.4035 44.5636 36.004 45.5531 35.5453 46.5296C35.2049 47.2363 34.8054 47.9302 34.4354 48.6369C34.3466 48.7911 34.1986 48.9581 34.1986 49.1252C34.169 50.6028 32.704 51.7079 32.556 52.9543C32.4969 53.4554 32.3637 53.9051 31.8753 54.2778C31.6978 54.4191 31.683 54.6889 31.609 54.8945C31.387 55.5627 31.1946 56.2309 30.9431 56.899C30.3363 58.4924 29.4485 60.3427 28.753 61.9488C28.3682 62.8354 27.9835 63.7349 27.6579 64.6344C27.1104 66.1377 26.5924 67.6411 26.0745 69.1445C25.675 70.2881 25.2458 71.4317 24.8759 72.5881C24.4615 73.9116 24.1212 75.2479 23.7364 76.5714C23.6032 77.0468 23.4553 77.5223 23.2777 77.9977C23.1001 78.4988 22.5526 78.7044 21.9015 78.5631C20.7768 78.3061 19.8889 77.8049 19.2082 77.0468C18.6015 76.353 17.2105 75.5049 17.4324 74.7982C17.7284 73.8345 18.1428 72.9093 18.5127 71.9585C18.5867 71.7786 18.7051 71.5987 18.7199 71.406C18.8383 69.4657 19.9777 67.7439 20.5252 65.8936C20.688 65.3282 21.058 64.7885 21.3539 64.2489C21.6055 63.7863 22.4934 63.7092 21.9606 63.041C21.8571 62.9125 21.9459 62.5528 22.0642 62.5142C22.8189 62.3086 22.9077 61.8075 23.0557 61.3064C23.1149 61.1907 23.1741 61.0622 23.2481 60.8695Z" fill="black"/>
<path d="M69.0037 17.9399C70.3207 17.5415 71.7118 17.3488 73.1472 17.3359C73.162 17.4002 73.1916 17.4644 73.2064 17.5287C71.8301 17.7343 70.4539 17.9399 69.0629 18.1454C69.0481 18.0684 69.0333 18.0041 69.0037 17.9399ZM77.1278 17.4259C76.5655 17.4516 76.0032 17.4773 75.4409 17.503C75.4261 17.4516 75.4261 17.3873 75.4113 17.3359C75.9736 17.3103 76.5211 17.2845 77.0835 17.2588C77.0983 17.3102 77.113 17.3745 77.1278 17.4259ZM15.8935 28.4249C14.9464 28.0395 14.9168 28.0395 14.6504 28.6434C15.124 28.5663 15.5087 28.502 15.8935 28.4249ZM63.706 21.4477C64.3275 21.7047 64.6975 22.1802 64.9934 21.0751C65.9997 21.0237 67.006 20.9852 68.0122 20.9209C68.5598 20.8824 70.9423 20.1499 71.7561 20.0729C72.4369 20.0086 73.1472 19.5203 73.8427 20.2142C74.1238 20.4969 74.5974 20.3041 74.6862 19.9315C74.701 19.893 74.9229 19.8416 74.9821 19.8673C76.092 20.484 77.0539 20.3684 77.8234 19.3661C77.2906 19.289 76.8467 19.2248 76.3879 19.1734C76.0032 19.1348 75.5888 19.1734 75.2337 19.0578C75.0265 18.9935 74.8046 18.7108 74.7897 18.5181C74.7749 18.4024 75.1153 18.2482 75.3225 18.1583C75.4853 18.094 75.7072 18.0941 76.018 18.0427C75.8256 18.3125 75.6776 18.5181 75.4705 18.8136C75.8996 18.7879 76.2992 18.8522 76.5951 18.7494C77.631 18.3767 78.6373 18.7879 78.7852 19.6874C78.7852 19.7259 78.8148 19.7516 78.9036 19.9315C79.6139 19.7002 80.3538 19.5203 81.0197 19.2376C81.3453 19.0963 81.5081 19.0963 81.804 19.2634C81.9964 19.3661 82.2776 19.4818 82.4847 19.4561C84.1273 19.3019 85.7551 19.122 87.5457 18.9421C87.2201 18.7622 86.9833 18.6209 86.6578 18.4281C87.2497 18.0684 88.3892 17.8371 87.1165 17.0147C87.1757 16.989 87.2201 16.9633 87.2793 16.9505C87.6789 17.0276 88.1524 17.0404 88.478 17.2075C89.4398 17.7214 90.4313 18.2354 90.7273 19.1991C90.8012 19.4561 91.038 19.6874 91.1268 19.9444C91.2156 20.2013 91.3488 20.5226 91.2156 20.7025C91.0972 20.8567 90.6385 20.9338 90.3277 20.9338C87.7381 20.9209 85.1336 20.8438 82.5439 20.8824C80.5314 20.9081 78.5337 21.0494 76.5359 21.2164C74.7306 21.3706 72.9548 21.7304 71.1494 21.8204C67.1983 22.0388 63.558 23.1053 59.6957 23.5807C58.1271 23.7735 56.5881 24.0305 55.0196 24.236C53.9985 24.3774 53.1698 24.6344 53.0218 25.5338C52.9922 25.688 52.8146 25.8422 52.6371 25.9322C52.2375 26.1377 52.1635 26.369 52.3707 26.5489C52.2523 26.883 52.1931 27.1272 52.0599 27.3584C51.616 28.1423 51.1425 28.9132 50.6689 29.6713C50.5653 29.8384 50.3582 29.9797 50.299 30.1468C49.7958 31.7915 50.2842 32.6524 48.1385 32.1641C48.6564 31.83 49.0707 31.573 49.4999 31.3032C49.4703 31.2775 49.4555 31.239 49.4259 31.2133C49.2335 31.239 49.0559 31.2646 48.834 31.2903C49.5443 29.44 50.0918 27.5769 51.542 26.0864C51.4532 25.7651 51.3644 25.4953 51.246 25.0969C51.0093 25.1098 50.6097 25.0841 50.2546 25.1483C46.2739 25.8037 42.2784 26.459 38.2977 27.1528C35.1902 27.6925 32.2009 28.5663 28.9898 28.8618C28.5162 28.9004 28.0871 29.1574 27.6283 29.2987C27.0956 29.4529 26.5629 29.5814 26.0302 29.7099C24.3284 30.121 22.6266 30.5194 20.9396 30.9306C19.6078 31.2518 18.2316 31.4831 16.9737 31.9071C15.1832 32.4982 13.4666 33.2049 11.7352 33.8859C10.4478 34.387 9.16037 34.901 7.93213 35.4792C7.3846 35.7362 6.97026 36.1474 6.48192 36.4815C5.78641 36.9569 4.79494 37.4066 4.15863 37.9335C3.99585 38.062 4.02544 38.4988 4.18822 38.6916C6.14156 40.8374 8.43526 42.752 11.2025 44.3067C11.602 44.5252 12.0608 44.6922 12.5047 44.8464C13.2446 45.1034 13.6294 45.5403 13.3778 46.0286C12.9043 46.9409 12.6675 47.0694 11.7204 46.9152C8.55365 46.4012 6.14156 44.9749 4.3214 42.9833C1.40618 39.7838 0.207545 38.6402 0.000372316 34.5926C-0.0144257 34.1814 0.414716 33.7317 0.784667 33.3719C1.39139 32.7809 2.10169 32.2412 2.78241 31.6887C2.87119 31.6116 2.97478 31.5345 3.09317 31.4959C4.58777 30.9049 6.05278 30.2881 7.57697 29.7484C7.94693 29.6199 8.49446 29.7484 8.9384 29.6842C9.33795 29.6199 9.81149 29.5428 10.0779 29.3372C10.6698 28.8618 10.7438 28.849 11.1581 29.5171C11.5873 29.3886 12.0016 29.2473 12.6231 29.0546C12.1348 28.9261 11.8684 28.849 11.4541 28.7333C13.2298 28.0909 14.8428 27.4098 16.6038 27.4998C16.8702 27.1914 17.0329 26.8316 17.2105 26.8445C17.5065 26.8445 17.8172 27.0757 18.1132 27.2171C18.3944 27.3584 18.6607 27.5126 18.9419 27.654C19.2526 27.8082 19.5634 27.9367 19.9777 28.1165C18.6903 28.9646 18.0836 28.168 17.5213 27.6797C17.1661 27.8853 16.885 28.0523 16.5298 28.2707C16.7814 28.3735 17.0625 28.4892 17.4621 28.6562C16.8554 28.8104 16.3374 28.9518 15.8047 29.0931C15.8343 29.1574 15.8787 29.2216 15.9083 29.273C16.4114 29.1445 16.8997 29.016 17.4621 28.8747C17.5361 29.0546 17.5953 29.2087 17.7136 29.5043C21.0136 28.9132 24.358 28.3221 27.6579 27.6797C28.6938 27.4741 29.7001 27.1786 30.7507 26.9858C31.3871 26.8702 32.0678 26.8445 32.7337 26.7931C33.666 26.7031 34.5982 26.6646 35.5157 26.5104C35.9005 26.4461 36.2556 26.202 36.5368 25.9707C37.3803 25.2768 37.9574 25.9193 39.8663 25.4182C40.8874 25.1483 41.8937 24.9556 43.0183 24.9685C44.0098 24.9813 44.9865 24.8143 45.9779 24.7243C46.1111 24.7115 46.2739 24.6858 46.3627 24.6215C47.2062 23.9791 48.3308 24.0176 49.4407 23.9405C50.2398 23.8891 51.0389 23.6578 51.7788 23.4137C52.2523 23.2723 52.5187 22.9254 52.4447 22.4628C52.0303 22.4628 51.6456 22.4628 51.1868 22.45C51.2904 22.3472 51.32 22.2701 51.3496 22.2701C52.6075 22.3729 52.7998 21.6533 53.0958 20.9852C53.3326 20.4583 53.9541 19.7516 54.2057 19.3019C54.8864 18.0684 55.5375 16.8348 56.2182 15.6013C56.8249 14.4962 57.3872 13.3912 58.2899 12.4018C58.8522 11.785 59.1778 11.0398 59.5921 10.3459C61.1459 7.80172 62.6405 5.23185 64.2683 2.72622C64.8603 1.82677 65.7481 1.05581 66.5768 0.259152C66.7544 0.0792608 67.3611 -0.0620884 67.5239 0.0278571C67.953 0.271995 67.7903 0.606081 67.5239 0.914466C65.023 3.71563 63.6616 6.95366 61.7971 9.99895C60.998 11.3096 60.1841 12.6202 59.4294 13.9566C58.3935 15.7683 57.4168 17.5801 56.381 19.4561C57.3132 19.9829 56.4106 20.1628 55.9074 20.4326C56.0998 20.6254 56.2626 20.7667 56.3514 20.8567C55.8334 21.3578 55.3155 21.8332 54.842 22.3086C54.7532 22.3986 54.6644 22.6299 54.7236 22.6684C54.8864 22.7841 55.1527 22.9126 55.3155 22.874C56.4846 22.6427 57.8016 22.9897 58.8818 22.4243C59.0446 22.3343 59.3406 22.3857 59.5625 22.36C60.6872 22.2059 61.8267 22.0774 62.9365 21.8718C63.2325 21.8075 63.484 21.5762 63.706 21.4477ZM24.1064 26.4461C26.6813 25.5081 27.0808 25.5081 27.8207 26.3947C26.4149 27.6283 24.7575 27.6668 24.1064 26.4461ZM33.7399 23.9919C34.1691 24.3902 34.4503 24.6601 34.6722 24.8657C34.2579 25.1227 33.8583 25.3796 33.444 25.6238C33.0444 25.8551 32.6153 25.8808 32.2749 25.5724C32.5413 25.1098 32.7929 24.6729 33.0444 24.2232C32.6153 24.1975 32.2897 24.1718 31.9642 24.1461C31.9494 24.0819 31.9494 24.0176 31.9346 23.9405C32.127 23.8763 32.3045 23.7992 32.5117 23.7606C33.5624 23.555 34.6278 23.3494 35.6933 23.1567C35.8857 23.1182 36.1076 23.1696 36.3148 23.1824C36.1816 23.3109 36.078 23.5036 35.9005 23.5422C35.2345 23.7221 34.5686 23.8249 33.7399 23.9919ZM20.5253 26.4847C20.7916 25.9065 22.1975 25.4696 22.7154 25.6366C22.819 25.6752 22.9818 25.8165 22.9522 25.8679C22.893 25.9964 22.7746 26.1892 22.6414 26.2149C21.9459 26.3305 21.2356 26.4076 20.5253 26.4847ZM22.1827 27.0244C22.0051 27.9624 20.4069 28.5791 20.1257 27.6668C20.0073 27.2556 20.3921 27.3327 20.7029 27.307C20.984 27.2813 21.2652 27.1914 21.5463 27.14C21.7387 27.1014 21.9459 27.0629 22.1827 27.0244ZM26.0302 25.4824C25.1571 25.6366 24.3432 25.7908 23.3813 25.9579C23.8992 25.2768 25.4678 25.0199 26.0302 25.4824ZM37.3803 24.0433C37.1139 24.236 36.8327 24.4288 36.5072 24.6729C36.3296 24.5701 36.0928 24.4545 35.6637 24.2232C36.2704 24.0433 36.7144 23.9148 37.1583 23.7863C37.2175 23.8634 37.2915 23.9534 37.3803 24.0433ZM28.975 26.0864C29.0342 25.8679 29.0786 25.6495 29.1673 25.3282C29.5077 25.5081 29.7297 25.6238 30.0404 25.7908C29.7149 25.945 29.4633 26.0478 29.2265 26.1635C29.1377 26.1378 29.0638 26.1121 28.975 26.0864ZM31.3575 25.3668C31.1059 25.4182 30.8543 25.4696 30.588 25.521C30.5436 25.3796 30.4992 25.2383 30.4696 25.0969C30.7359 25.0841 31.0023 25.0713 31.2687 25.0584C31.2983 25.1612 31.3279 25.264 31.3575 25.3668ZM83.6982 16.475C81.6265 16.8862 79.6435 16.6678 77.7198 16.8477C78.0305 16.4493 82.6327 16.1795 83.6982 16.475Z" fill="black"/>
<path d="M135.906 35.2992C135.92 35.0422 135.935 34.8752 135.95 34.7081C135.906 34.6824 135.846 34.6696 135.802 34.6439C135.462 34.9651 135.136 35.2735 134.811 35.569C134.811 35.5433 134.811 35.4919 134.811 35.4277C135.077 33.5388 135.787 31.7399 136.542 29.9539C136.867 29.1829 137.178 28.4119 137.489 27.641C137.652 27.2555 138.111 27.0499 138.717 27.1142C139.22 27.1656 139.768 27.1013 140.197 27.2427C140.715 27.4226 141.174 27.3069 141.647 27.3712C142.284 27.4483 143.009 28.2064 142.964 28.6304C142.905 29.1701 142.654 29.6326 142.017 29.9667C141.751 30.1081 141.603 30.3394 141.411 30.5321C140.789 31.1874 140.108 31.8042 139.605 32.4981C139.161 33.102 138.392 33.4874 137.667 33.8601C136.986 34.207 136.557 34.6182 136.216 35.1065C136.187 35.1707 136.083 35.1964 135.906 35.2992Z" fill="black"/>
<path d="M127.131 48.7782C127.027 48.7526 126.938 48.7269 126.835 48.7012C126.642 49.1252 126.465 49.5492 126.272 49.9732C126.613 50.076 124.852 53.4683 127.131 48.7782ZM123.919 54.3035C124.511 54.5605 125.962 51.271 123.919 54.3035V54.3035ZM125.592 55.6655L125.399 55.3443C125.355 55.3571 125.31 55.37 125.251 55.3828C125.281 55.2158 125.31 55.0616 125.355 54.7789C124.852 55.0359 124.378 55.3057 124.778 55.6013C125.444 56.1152 125.103 56.5007 124.866 56.9504C124.63 57.4259 124.319 57.8884 124.349 58.5438C124.585 58.3639 124.704 58.2739 124.926 58.1069C124.837 58.5952 124.763 58.9678 124.689 59.3533C124.778 59.3661 124.852 59.379 124.94 59.3918C125.014 59.0706 125.029 58.7365 125.192 58.4538C125.414 58.0683 125.562 57.7471 124.792 57.4387C125.843 57.6186 125.888 57.5672 125.666 56.7449C125.932 56.7192 126.198 56.6935 126.45 56.6678C126.465 56.6292 126.479 56.5907 126.479 56.565C126.272 56.4879 126.08 56.4108 125.991 56.3722L125.592 55.6655ZM127.515 53.5325C127.53 53.3398 127.456 53.2627 127.367 53.1856C126.509 53.5068 126.272 53.9951 126.657 54.5733C126.331 54.8046 126.036 55.023 125.725 55.2543C125.814 55.3828 125.947 55.3828 126.11 55.3057C126.405 55.1644 126.672 54.9973 126.968 54.8817C127.353 54.7275 127.397 54.432 127.042 54.1107C127.234 53.918 127.456 53.8923 127.515 53.5325ZM128.507 50.7956C128.255 50.8984 128.033 51.0269 127.87 51.1168C127.826 50.9498 127.782 50.7956 127.737 50.6414C127.649 50.6286 127.575 50.6157 127.486 50.6029C126.923 51.5152 126.361 52.4275 125.799 53.3526C125.828 53.3912 125.873 53.4297 125.902 53.4683C126.124 53.3655 126.479 53.3141 126.568 53.1727C126.672 52.98 126.746 52.7872 126.82 52.5817L127.87 52.6074C128.092 52.0034 128.3 51.3995 128.507 50.7956ZM129.35 46.2855C129.276 46.2469 129.202 46.2212 129.128 46.1827C128.818 46.6453 128.507 47.095 128.211 47.5576C128.285 47.5961 128.359 47.6218 128.448 47.6604L129.35 46.2855ZM130.904 46.1698L131.037 46.0799C130.031 45.9771 129.987 46.0156 130.371 46.5425L130.904 46.1698ZM121.67 58.0683C121.774 57.7728 121.862 57.4773 121.951 57.1817C123.357 52.8515 126.05 47.1078 126.287 46.1184C126.805 45.1676 127.323 44.2167 127.841 43.2659C127.87 43.2016 127.93 43.1502 127.959 43.086C128.27 42.5592 128.64 42.058 128.877 41.5184C129.099 40.9915 129.469 40.6189 130.179 40.6189C130.963 40.6061 131.762 40.7217 132.547 40.7988C132.917 40.8373 133.301 40.9144 133.657 40.9915C133.997 41.0686 134.367 41.12 134.663 41.2742C135.921 41.891 136.276 42.7519 135.521 43.6899C132.709 47.2235 131.259 48.3285 128.98 52.5431C128.832 52.813 128.67 53.1213 128.492 53.4683C128.092 54.2392 127.545 55.28 127.234 55.9482C126.124 58.3382 125.532 60.2656 125.636 61.2807C131.629 58.8907 139.827 52.9671 144.163 49.1252C144.208 49.1509 144.252 49.1766 144.296 49.2151C144.119 49.395 141.026 52.0805 140.878 52.2861C140.76 52.4403 140.715 52.6202 140.641 52.7872C140.848 52.7744 139.665 53.5454 139.887 53.5454C139.961 53.5454 140.049 53.5325 140.138 53.5325C140.153 53.6096 140.197 53.6739 140.168 53.6996C138.052 55.8326 136.631 57.0147 134.041 58.8264C131.585 60.5354 129.025 62.1287 126.08 63.3494C125.695 63.5036 125.266 63.6193 124.911 63.7863C124.023 64.1975 123.135 63.8505 122.277 63.645C121.966 63.5679 121.729 63.3494 121.951 62.9511C122.055 62.7712 121.641 62.2701 121.315 62.0902C120.619 61.7047 120.442 61.5248 120.664 60.9209C120.93 60.0343 121.359 58.9293 121.67 58.0683ZM122.514 59.3661L123.002 58.3125H123.327V58.0555H123.12L123.165 57.9655C123.461 58.0169 123.786 58.1454 123.89 58.0683C124.038 57.9655 124.023 57.7343 124.082 57.5672C123.816 57.6443 123.609 57.7086 123.401 57.7728C123.372 57.6315 123.327 57.4901 123.298 57.3488C122.558 57.5929 122.336 58.7751 122.514 59.3661Z" fill="black"/>
<path d="M114.271 28.5534C113.501 28.5919 113.664 29.2729 113.161 29.5171C114.389 29.8255 113.886 28.8746 114.271 28.5534ZM112.584 32.9607C113.146 32.1641 113.901 31.4702 113.516 30.4936C113.457 30.3266 113.279 30.1852 113.146 30.0311C112.969 30.1852 112.702 30.3009 112.643 30.4808C112.539 30.7763 112.525 31.059 111.992 31.149C111.814 31.1747 111.666 31.5344 111.652 31.7529C111.652 31.997 111.814 32.254 111.962 32.6395C111.992 32.6652 112.214 32.7808 112.584 32.9607ZM113.842 23.5036C113.738 23.4907 113.649 23.4779 113.546 23.465C113.487 23.7477 113.487 24.0304 113.368 24.3003C112.495 26.2277 111.548 28.1294 110.719 30.0568C110.438 30.7121 110.409 31.4316 110.261 32.1255C111.045 31.83 111.4 31.1875 111.637 30.1595C111.933 28.8489 112.791 27.6668 112.909 26.3047C112.983 25.5081 113.472 24.7628 113.768 23.9919C113.827 23.8248 113.827 23.6578 113.842 23.5036ZM113.738 17.1303C113.945 16.3722 113.768 15.8454 112.924 15.3443C112.288 14.9459 112.155 14.4962 112.554 14.0336C113.087 13.4168 113.812 13.2755 114.537 13.5582C114.966 13.7252 115.484 13.8023 115.958 13.8152C116.639 13.8409 117.334 13.7638 118.015 13.7381C119.657 13.661 120.9 14.6118 120.723 15.8454C120.501 17.3873 120.279 18.9421 119.273 20.317C119.125 20.5225 119.006 20.7667 118.947 21.0108C118.577 22.3985 117.837 23.6578 116.934 24.8785C116.446 25.5338 116.402 26.3947 116.135 27.1657C116.002 27.5383 115.839 27.9109 115.662 28.2835C114.922 29.8383 114.138 31.3802 113.442 32.9479C113.176 33.5518 112.628 33.873 111.74 33.7831C111.578 33.7702 111.415 33.7959 111.252 33.8088C111.237 33.873 111.222 33.9373 111.208 34.0144C111.578 34.1043 111.933 34.2071 112.451 34.3356C112.273 35.7747 111.282 37.0468 110.423 38.3831C110.349 38.1775 110.261 37.9591 110.231 37.8692C110.986 36.7641 111.533 35.7105 111.578 34.5026C110.305 35.5434 109.018 36.5714 109.077 38.1775C109.21 38.2418 109.387 38.3446 109.565 38.4474C108.958 38.5887 108.366 38.5887 108.263 39.1284C108.056 39.0642 107.671 39.0128 107.656 38.9357C107.627 38.7301 107.715 38.4988 107.819 38.306C108.44 37.1496 109.18 35.9546 109.861 34.811C109.787 34.7468 109.713 34.6825 109.624 34.6183C109.417 34.7339 109.106 34.811 109.018 34.9652C108.189 36.3915 107.39 37.8178 106.62 39.2569C104.696 42.8419 102.773 46.4268 100.864 50.0246C100.627 50.4744 100.464 50.9626 100.272 51.4381C100.183 51.4124 100.094 51.3867 99.9907 51.3738C100.109 51.0269 100.272 50.6928 100.301 50.333C100.316 50.1531 100.879 49.8576 100.183 49.7291C100.331 49.6135 100.908 49.1509 100.982 49.0352C101.308 48.5213 101.678 48.0073 101.914 47.4548C102.033 47.1849 101.826 46.8252 101.87 46.5296C101.929 46.067 102.077 45.6173 102.196 45.1547C102.299 45.1804 102.403 45.1933 102.492 45.219C102.432 45.4246 102.358 45.643 102.299 45.8486C102.358 45.8743 102.418 45.8871 102.492 45.9128C102.714 45.6173 102.95 45.3218 103.231 44.962C102.921 44.9492 102.788 44.9491 102.64 44.9491C102.506 44.8592 102.388 44.7693 102.255 44.6793C102.802 44.4095 103.365 44.1525 103.912 43.8827C103.809 43.8184 103.69 43.7413 103.587 43.6771C103.439 43.7927 103.291 43.9083 103.113 44.0497C103.084 43.9854 103.024 43.9341 103.039 43.8955C103.069 43.7799 103.098 43.5871 103.187 43.5614C104.475 43.3173 104.134 42.3022 104.741 41.7111C104.504 41.6597 104.356 41.6212 104.06 41.5441C104.475 41.12 104.815 40.7731 105.155 40.4133C105.362 40.2077 105.777 40.0279 105.274 39.7066C105.229 39.6681 105.274 39.501 105.333 39.4239C105.806 38.7172 105.836 37.8049 106.872 37.3295C107.123 37.2138 107.212 36.8798 107.434 36.5585C107.138 36.6099 106.975 36.6356 106.65 36.6999C107.064 35.7876 107.449 34.9652 107.804 34.1428C107.908 33.9116 107.952 33.3719 108.1 33.0764C108.485 32.3183 108.914 31.5858 109.269 30.8149C109.743 29.7741 110.127 28.7076 110.601 27.6668C111.356 26.0221 111.992 24.3645 112.303 22.6041C112.628 20.7538 113.22 18.9421 113.738 17.1303Z" fill="black"/>
<path d="M106.65 42.6749C106.546 42.5849 106.413 42.4693 106.265 42.328C106.754 42.2766 107.124 42.2509 107.538 42.1995C107.76 42.6749 107.316 42.9833 107.109 43.3302C106.798 43.8699 106.532 44.4352 106.132 44.9364C105.614 45.5788 105.644 46.3883 105.155 46.9666C104.475 47.7761 104.149 48.6884 103.661 49.5493C103.616 49.6392 103.513 49.7292 103.409 49.7806C103.084 49.9348 102.743 50.0633 102.403 50.2174C102.092 49.9219 102.359 49.5878 103.439 49.1124C103.276 48.8683 103.113 48.637 102.95 48.3928C102.995 48.3671 103.039 48.3414 103.084 48.3158C103.217 48.4314 103.365 48.547 103.631 48.7655C103.572 48.38 103.528 48.1102 103.483 47.8146C104.371 47.609 104.46 46.9923 104.726 46.4526C104.874 46.1571 105.067 45.8615 105.244 45.566C105.451 45.2191 105.673 44.8721 105.866 44.5123C106.058 44.1654 106.25 43.8185 106.413 43.4587C106.517 43.2146 106.576 42.9447 106.65 42.6749Z" fill="black"/>
<path d="M104.282 44.9106C104.253 44.7179 104.149 44.5123 104.208 44.3581C104.475 43.7156 104.682 43.0474 105.141 42.4949C105.422 42.148 105.644 41.8524 105.673 41.4541C105.673 41.3899 105.925 41.2999 106.029 41.3128C106.132 41.3256 106.28 41.5055 106.25 41.5826C106.177 41.8139 106.073 42.0452 105.895 42.2379C105.511 42.6619 105.333 43.0988 105.54 43.6128C104.8 43.8569 104.786 44.4352 104.519 44.8977C104.445 44.8977 104.371 44.9106 104.282 44.9106Z" fill="black"/>
<path d="M97.5195 54.0209C97.8303 53.3912 98.141 52.7488 98.4666 52.1191C98.5554 52.1448 98.659 52.1834 98.7478 52.2091C98.437 52.8516 98.1262 53.4812 97.8155 54.1236C97.7119 54.0851 97.6231 54.0466 97.5195 54.0209Z" fill="black"/>
<path d="M101.5 51.2969C101.9 51.9136 101.604 52.4918 100.657 52.9801C100.967 52.3762 101.204 51.8879 101.5 51.2969Z" fill="black"/>
<path d="M120.723 71.3931C121.448 71.8299 122.173 72.2668 122.898 72.7037C122.854 72.7551 122.809 72.7937 122.765 72.8451C122.04 72.4082 121.315 71.9841 120.575 71.5473C120.634 71.483 120.678 71.4316 120.723 71.3931Z" fill="black"/>
<path d="M102.447 47.5321C102.669 47.2622 102.906 46.9924 103.128 46.7097C103.232 46.7611 103.32 46.8125 103.424 46.8639C103.187 47.1337 102.965 47.4164 102.728 47.6863C102.64 47.6349 102.551 47.5835 102.447 47.5321Z" fill="black"/>
<path d="M99.8281 52.5047C99.6062 53.0829 99.3842 53.6483 99.1474 54.2265C99.0882 54.2136 99.0143 54.1879 98.9551 54.1751C99.1622 53.5969 99.3842 53.0187 99.5914 52.4404C99.6802 52.4661 99.7542 52.4918 99.8281 52.5047Z" fill="black"/>
<path d="M110.172 35.8517C109.876 35.6975 109.684 35.5948 109.639 35.5819C109.521 35.2607 109.373 35.0422 109.388 34.8366C109.388 34.6568 109.521 34.3484 109.669 34.3227C110.113 34.2456 110.128 34.0143 110.216 33.7573C110.276 33.6031 110.498 33.5003 110.646 33.3718C110.749 33.5003 110.897 33.6288 110.956 33.7573C111.282 34.5925 110.646 35.1707 110.172 35.8517Z" fill="black"/>
<path d="M111.592 32.1255C111.267 32.3956 111.696 33.1931 110.66 32.9358C111.074 32.7429 110.941 32.1641 111.592 32.1255Z" fill="black"/>
<path d="M82.618 55.2672L81.3897 57.413C81.3305 57.4002 81.2714 57.3873 81.1974 57.3745C81.1234 57.2331 81.0346 57.0789 80.9606 56.9376C80.9014 56.9247 80.8274 56.9248 80.7682 56.9119C80.6942 57.1175 80.5019 57.3488 80.5758 57.5158C80.709 57.7985 81.005 58.0298 81.3306 58.3767C81.4341 58.1968 81.6117 57.9527 81.7449 57.6829C81.8781 57.4259 81.8929 57.1303 82.0705 56.899C82.8252 55.9225 83.3579 55.1901 83.3283 54.0208L82.618 55.2672ZM82.1592 53.8794L81.7449 55.4728C81.8485 55.4214 82.0261 55.2929 82.1001 55.2286C82.4552 54.8945 82.5292 54.432 82.3812 53.9052C82.3072 53.8923 82.2332 53.8666 82.1592 53.8794ZM77.8678 60.4326L77.9714 59.9186C78.0306 59.9315 78.1046 59.9315 78.1638 59.9443C78.2082 60.06 78.2526 60.1756 78.297 60.3041C79.096 59.8929 78.5189 59.2762 78.5633 58.7493C78.6965 58.7879 78.8593 58.865 78.8741 58.8521C79.4068 58.2354 79.5548 57.7085 79.7472 56.899C79.8803 56.3594 80.0727 55.8326 80.2799 55.2543C80.4131 54.8946 80.5315 54.5605 80.6202 54.2264C80.9162 53.1727 81.3897 52.1962 82.1888 51.2196C82.4108 50.9755 82.5588 50.7956 82.7364 50.6414L83.1655 50.0118L89.9134 40.0279C90.4609 39.2312 91.2305 38.3317 91.5708 37.5094C91.2157 37.5222 90.9197 37.4837 90.6829 37.5608C89.0699 38.0876 87.457 38.6273 85.8588 39.1669C85.548 39.2697 85.1189 39.7966 84.8377 39.8608C83.787 40.1435 81.0642 40.7217 80.2651 41.0301C80.1171 41.0815 79.9987 41.2357 79.9395 41.3899L79.3328 41.4284C79.1996 41.2228 77.5718 40.4133 77.1723 40.2078C77.927 39.0642 76.8763 38.4088 76.9355 37.6764C77.1575 34.9267 77.6458 32.2283 79.4512 29.8126C81.0494 27.6925 80.8274 27.3969 83.3727 25.5081C83.5947 25.3411 84.157 25.3153 84.4825 25.4053C85.548 25.7394 86.6282 26.0992 87.6197 26.5489C88.5964 26.9858 88.6112 27.7824 87.7677 28.5148C87.0426 29.1573 86.0215 29.6327 85.3112 30.288C84.5269 31.0205 83.935 31.8814 83.3283 32.7166C83.2099 32.8708 83.3727 33.1534 83.4171 33.4361C83.1655 33.6417 82.8548 33.9116 82.544 34.1686C81.9965 34.6568 80.4723 37.3038 80.2503 37.9591C80.1319 38.3317 79.8211 38.6658 79.4956 39.1926C80.0431 39.167 80.3983 39.1926 80.709 39.1284C82.9287 38.7044 85.1485 38.2803 87.3534 37.8178C88.404 37.5993 89.3807 37.2524 90.4313 37.034C91.3044 36.8541 91.9999 36.5842 92.5771 36.0317C93.2134 35.4149 94.5156 35.4406 95.3591 35.9932C95.6699 36.1987 95.9362 36.4557 96.247 36.7256C96.7797 36.2116 97.1941 36.2373 97.7268 36.5328C98.4223 36.9183 99.029 37.3038 98.8958 38.0105C98.8514 38.2418 98.7331 38.4731 98.5703 38.653C97.7712 39.5139 96.9721 40.3619 96.1434 41.1971C95.5811 41.7497 94.9152 42.2508 94.3972 42.829C94.1309 43.1117 94.1605 43.5486 93.9089 43.8441C92.873 45.0648 91.7632 46.2469 90.7421 47.4805C89.8838 48.5213 88.3596 50.7571 87.4717 51.9906C87.3829 51.9777 87.309 51.9649 87.2202 51.9392C87.1314 51.7208 87.0574 51.5023 86.939 51.2068C86.5691 51.6051 86.2879 51.9135 86.0659 52.1576C86.4063 52.2604 86.791 52.2733 86.9686 52.4275C87.2202 52.6588 86.8058 53.2113 86.2879 53.404C86.1251 53.1727 85.9475 52.9414 85.844 52.7873C84.6897 53.3012 85.2224 53.2755 84.009 52.8772C83.9794 52.9286 83.9498 52.98 83.9202 53.0442C85.0153 53.494 85.2816 53.1342 84.8525 53.9951C84.3346 55.0102 83.8314 56.0381 83.3283 57.0661C83.2099 57.3102 83.1507 57.5801 83.2099 57.9141C83.6538 57.6315 84.0978 57.3488 84.4825 57.1046C84.4677 56.7963 84.4677 56.5521 84.4529 56.218C85.2372 56.4879 85.6664 56.3337 85.9031 55.8454C85.9327 55.794 86.8798 55.4471 86.9242 55.1258C87.0278 54.4834 87.7973 54.2392 88.3892 53.7895C88.9516 53.3655 89.1143 52.8001 89.7211 52.4146C92.2811 51.0269 98.0228 45.6816 101.559 42.8162C102.077 42.405 102.566 42.5977 103.024 42.2508C101.412 42.7391 95.9658 48.5213 92.1183 52.1448C92.0443 52.1319 91.8076 52.0934 91.5708 52.0548C91.5264 52.3247 91.4968 52.6459 91.3192 52.8772C89.943 54.6119 88.1229 56.051 86.3915 57.5544C84.8229 58.9164 83.9794 60.6382 82.7808 62.1801C82.322 62.7841 81.8337 63.3623 81.3897 63.9662C81.2122 64.1975 81.1234 64.4673 80.931 64.6858C80.4723 65.1869 79.9839 65.688 79.4808 66.1634C78.9777 66.6517 77.3351 65.3925 77.2167 65.0198C77.1427 64.8014 77.0243 64.5701 77.0687 64.3774C77.3055 63.0924 77.5866 61.7818 77.8678 60.4326ZM79.2588 61.0365C79.4956 60.3941 79.5252 60.3427 79.7768 59.6874C79.6732 59.6617 79.5548 59.636 79.4512 59.6103C79.6436 59.97 78.3118 60.8181 79.2588 61.0365ZM83.6982 51.2325C84.2162 51.7079 83.2247 52.5174 82.618 53.3655C82.8844 53.4297 83.0619 53.4683 83.2395 53.5068C83.1951 53.4683 83.1507 53.4297 83.1063 53.3783C83.4171 53.0956 83.713 52.813 84.0238 52.5174C84.0238 52.4532 83.9794 52.3118 84.0238 52.1962C84.0386 52.1319 84.1866 52.0934 84.2754 52.042C84.3641 52.1962 84.4381 52.3118 84.5861 52.5688C84.8377 52.2861 85.0301 52.0934 85.2076 51.9007C84.9561 51.8236 84.6897 51.7336 84.4233 51.6565C84.4973 51.104 84.2754 50.8341 83.6538 50.7956C83.5207 50.7828 83.4023 50.8856 83.2691 50.9498C83.3579 51.014 83.4319 51.1168 83.6982 51.2325ZM84.8229 50.0632C84.5565 50.3202 84.4677 50.6414 84.7045 50.9241C84.9857 50.3973 85.4888 50.1274 86.3915 50.4872C86.3915 50.4872 88.0637 49.5364 86.2287 49.5492C85.7108 49.5492 85.2224 49.7291 84.9117 49.9733" fill="black"/>
<path d="M97.061 56.5266C97.1202 56.5523 97.1942 56.578 97.2534 56.6037C97.4753 56.1154 97.6973 55.64 97.9193 55.1517C97.8601 55.1389 97.8009 55.1132 97.7417 55.1003C97.5197 55.5758 97.2829 56.0512 97.061 56.5266ZM96.9574 59.8803C96.4247 59.1607 96.0103 58.5954 95.522 57.9272C96.4986 55.64 97.0758 54.1366 97.5493 53.4299C97.9637 53.7255 97.9341 53.9824 98.1856 54.1623C98.5112 53.8797 98.8515 53.5841 99.1919 53.2886C99.2511 53.3143 99.2955 53.34 99.3547 53.3528C99.3251 53.507 99.3399 53.6741 99.2659 53.8025C98.8072 54.5992 98.3188 55.383 97.8749 56.1797C97.6677 56.5523 97.8749 57.6702 97.6973 58.3769C97.5937 58.8652 97.2534 59.3021 96.9574 59.8803Z" fill="black"/>
<path d="M149.046 45.6433C149.002 45.6304 148.958 45.6047 148.898 45.5919C148.425 46.3885 147.951 47.1852 147.463 47.969C147.552 47.9947 147.626 48.0332 147.715 48.0589C148.173 47.2623 148.617 46.4528 149.046 45.6433ZM145.125 49.6394C145.184 49.6779 145.258 49.7165 145.317 49.7551C146.279 49.5366 146.841 48.8941 146.605 48.0204C146.102 48.5472 145.613 49.0869 145.125 49.6394ZM142.461 57.0149C142.535 57.0663 142.609 57.1177 142.683 57.1691C142.964 57.0278 143.379 56.9378 143.482 56.7451C143.734 56.2825 143.837 55.7685 144.03 55.216C143.749 55.306 143.541 55.3831 143.26 55.473C143.334 55.1518 143.379 54.8948 143.438 54.6378C143.334 54.625 143.216 54.625 143.112 54.6121C143.112 54.9333 143.083 55.2546 143.142 55.5758C143.201 55.8713 143.231 56.0898 142.876 56.3082C142.639 56.4624 142.594 56.7836 142.461 57.0149ZM145.746 50.6802C144.533 51.0657 143.66 52.5177 144.267 52.9802C143.334 53.9182 143.512 53.5842 143.601 54.1881C143.956 53.9953 144.563 53.7255 144.681 53.4428L145.746 50.6802ZM149.934 42.1482C149.875 42.0968 149.801 42.0454 149.742 41.994C148.366 42.7907 148.558 42.5466 148.958 43.0091C148.292 44.2298 147.641 45.412 147.019 46.607C146.945 46.7483 147.063 46.9539 147.093 47.1338C147.167 47.1466 147.241 47.1466 147.315 47.1595C148.188 45.4891 149.061 43.8187 149.934 42.1482ZM145.968 52.0037C146.249 51.4512 146.501 50.9115 146.753 50.3975C146.264 50.4104 145.732 51.4126 145.968 52.0037ZM149.106 48.6372C149.609 48.9969 149.461 49.331 149.253 49.7036C149.046 50.0763 148.987 50.5003 148.854 50.8986C148.617 51.6182 148.38 52.3506 148.144 53.0702C148.114 53.1344 148.129 53.2244 148.07 53.2758C147.3 53.8925 147.463 54.6378 147.522 55.4216C147.552 55.9099 147.226 56.3853 147.019 56.8607C146.767 57.4261 146.486 57.9786 146.22 58.544C146.294 58.5826 146.368 58.6083 146.442 58.6468C146.693 58.4284 146.96 58.2099 147.211 57.9786C148.898 56.4367 150.6 54.882 152.287 53.3272C152.479 53.1473 152.613 52.916 152.746 52.7104C152.835 52.5691 152.879 52.4149 152.983 52.2735C153.456 51.6953 153.944 51.1428 154.374 50.5389C156.179 47.9304 158.192 45.412 160.026 42.8036C161.521 40.6834 165.827 33.3207 166.597 30.9693C166.982 29.7872 166.937 28.5022 167.1 27.2558C167.189 26.5363 167.307 25.8296 167.411 25.11C167.544 24.2234 167.381 23.4139 166.227 22.8742C165.753 22.6429 165.857 22.3731 166.301 22.2574C166.671 22.1546 167.159 22.0518 167.5 22.1546C168.299 22.3859 169.142 22.6429 169.793 23.0541C170.459 23.4653 171.066 24.0306 171.436 24.6217C171.939 25.4312 172.294 26.3178 171.658 27.1916C171.525 27.3715 171.51 27.5899 171.421 27.7826C171.036 28.6436 170.651 29.5173 170.222 30.3654C169.926 30.9436 169.571 31.509 169.216 32.0615C168.757 32.7682 166.774 36.2247 166.316 36.9442C165.872 37.6253 163.667 40.6192 163.252 41.313C163.104 41.5572 162.971 41.827 162.794 42.0583C161.802 43.3047 160.781 44.5511 159.775 45.7975C159.139 46.5941 159.139 46.5941 157.851 47.0567C158.147 47.1209 158.34 47.1595 158.621 47.2237C157.688 48.1617 157.452 49.4595 156.149 50.012C155.913 50.4489 155.794 50.8087 155.543 51.1171C154.684 52.1707 153.737 53.1858 152.909 54.2395C152.228 55.0875 151.222 55.6915 150.378 56.411C149.594 57.0792 149.135 57.9658 148.484 58.7368C147.981 59.3407 147.374 59.8932 146.871 60.4971C146.249 61.2295 145.702 62.0133 145.066 62.7457C144.873 62.9642 144.548 63.1955 144.222 63.2597C143.734 63.3497 143.26 63.2597 143.186 62.7201C143.157 62.5273 142.876 62.2446 142.624 62.1804C141.988 62.0005 141.514 61.7307 141.159 61.2809C140.745 60.7541 140.212 60.2787 139.901 59.739C139.709 59.4049 139.724 58.9552 139.842 58.6083C140.641 56.3982 141.529 54.2009 142.328 51.978C142.624 51.1428 142.624 50.2433 142.95 49.421C143.571 47.7891 144.341 46.1958 145.021 44.5639C146.042 42.0968 147.078 39.9895 148.025 37.5096C148.277 36.8415 148.366 36.1347 148.499 35.4409C148.573 35.0811 148.514 34.747 148.07 34.4772C147.922 34.3872 147.818 34.1174 147.892 34.0146C147.996 33.8475 148.292 33.6163 148.484 33.642C149.046 33.719 149.638 33.8347 150.141 34.0531C151.207 34.5286 152.243 35.0425 153.249 35.5951C153.501 35.7364 153.737 36.0319 153.767 36.2632C153.856 36.9314 153.974 37.6253 153.811 38.2549C153.412 39.8996 152.849 41.1588 152.331 42.7907C152.228 43.0991 151.962 43.3689 151.769 43.6516C151.71 43.7416 151.606 43.8186 151.577 43.9214C151.222 45.0136 150.881 46.1187 150.511 47.2109C150.156 48.136 150.141 48.1232 149.106 48.6372Z" fill="black"/>
<path d="M66.8281 51.5152L67.2129 50.7957L67.2425 50.7571L67.2573 50.7186L67.2721 50.68L67.3017 50.6415L67.3165 50.6029L67.3461 50.5644L67.3608 50.5258L67.3757 50.4873L67.4052 50.4487L67.42 50.4102L67.4496 50.3716L67.4644 50.3459L67.4792 50.3074L67.5088 50.2688L67.5236 50.2303L67.5532 50.1918L67.568 50.1532L67.5828 50.1147L67.6124 50.0761L67.6272 50.0376L67.6568 49.999L67.6716 49.9605L67.6864 49.9219L67.716 49.8834L67.7308 49.8448L67.7456 49.8063L67.7752 49.7677L67.79 49.7292L67.8196 49.7035L67.8344 49.6649L67.8492 49.6264L67.8788 49.5878L67.8936 49.5493L67.9232 49.5107L67.938 49.4722L67.9528 49.4336L67.9824 49.3951L67.9972 49.3566L68.0268 49.318L68.0416 49.2795L68.0564 49.2409L68.086 49.2024L68.1007 49.1638L66.8281 51.5152Z" fill="black"/>
<path d="M64.2388 53.083V53.0959H64.2536V53.1088H64.2684L64.2832 53.1216H64.298V53.1345H64.3128V53.1474H64.3276H64.3424V53.1603H64.3571V53.1731H64.3719H64.3867V53.186H64.4015V53.1989H64.4163L64.2388 53.083Z" fill="black"/>
<path d="M64.5059 53.1729C64.4761 53.1866 64.4463 53.1866 64.4165 53.2004C64.4463 53.1866 64.4761 53.1866 64.5059 53.1729Z" fill="black"/>
<path d="M117.645 44.1782C118.548 43.69 119.021 42.9447 118.696 42.6106C118.34 43.1503 118 43.6643 117.645 44.1782ZM94.4563 65.3668C94.7375 64.8143 95.063 64.3774 95.1814 63.9148C95.3442 63.221 95.137 62.1416 95.3442 61.7818C95.7881 61.0109 96.9276 60.2528 97.3715 59.4818C97.4455 59.3533 97.4307 59.1863 97.4603 59.0449C97.4011 59.0192 97.3567 59.0064 97.2975 58.9807C96.972 59.2634 96.6316 59.5589 96.3209 59.8287C96.0841 59.6617 95.8473 59.4947 95.433 59.212C95.0778 60.8181 94.0568 62.283 93.7312 63.735C93.6868 63.7735 93.6424 63.812 93.598 63.8634C93.4056 63.5294 93.5536 63.645 93.0505 63.4908C93.5388 64.1333 93.9384 64.6729 94.4563 65.3668ZM112.747 65.7138C111.075 63.9148 109.728 61.9874 108.292 60.0986C106.887 58.2483 105.54 56.398 104.179 54.5348C103.853 54.0851 103.557 53.6097 103.246 53.1471C102.95 53.4555 102.64 53.6996 102.432 53.9951C101.263 55.7298 101.974 54.5605 100.79 56.2823C100.524 56.6678 100.08 56.989 99.7688 57.3617C99.5912 57.5673 99.532 57.8371 99.3545 58.0427C98.363 59.212 97.8599 60.5355 97.4011 61.8718C97.0016 63.0282 96.454 64.159 95.9805 65.3026C95.9065 65.4825 95.8325 65.6624 95.8029 65.8551C95.7437 66.1249 95.6106 66.2534 95.1962 66.1763C94.5155 66.0478 93.8348 65.9322 93.1541 65.8422C92.1922 65.7138 91.9258 65.4825 92.1922 64.7886C94.7967 58.3125 98.0078 53.7125 95.9361 57.9784C95.8621 58.1326 95.7585 58.3768 95.8473 58.4667C96.0841 58.698 96.1433 58.8522 95.5514 58.9935C95.6846 59.0321 95.8177 59.0706 95.9509 59.1092C98.6886 54.2778 95.8473 59.0835 98.0374 58.2097C99.1917 56.9119 97.5491 57.9013 97.5787 57.6958C97.9487 57.6958 99.0585 54.9588 99.1325 55.0616C99.2213 54.9845 99.0289 54.7147 99.1769 54.7533C99.6208 53.9566 100.065 53.1856 100.479 52.4147C100.701 52.0035 100.864 51.5666 101.115 51.1683C101.263 50.937 101.53 50.7957 101.841 51.1297C101.885 51.1811 102.107 51.2068 102.166 51.1811L104.06 51.7465C104.43 51.6694 104.608 51.6566 104.756 51.6052C106.28 51.0141 107.878 50.513 109.284 49.8063C110.69 49.0867 111.415 48.0459 112.673 47.1721C114.744 45.733 115.987 44.795 117.467 42.9575C118.104 42.1737 118.533 41.2871 118.977 40.4262C119.376 39.6553 120.146 38.9871 120.486 38.1904C120.678 37.7279 120.456 37.4709 119.894 37.2525C116.742 36.0832 113.649 38.5759 112.466 38.9614C112.584 38.7173 113.146 38.0876 113.22 37.9977C113.546 37.5608 114.064 37.6508 114.36 37.201C114.685 36.6999 119.332 35.0809 120.057 35.2865C120.338 35.3636 120.634 35.4792 120.93 35.5049C123.135 35.6977 124.319 37.9335 123.608 39.4625C123.239 40.2592 123.061 41.0815 122.573 41.8654C122.262 42.3536 122.025 42.7391 121.433 43.0347C121.182 43.1503 121.078 43.5486 121.078 43.8185C119.48 45.3347 117.304 46.9922 116.698 47.7632C116.328 48.0587 116.002 48.3928 115.603 48.6498C114.656 49.2666 114.182 49.9861 113.205 50.5901C113.176 50.6158 113.146 50.6543 113.102 50.6543C111.844 50.8856 111.134 51.8108 109.876 52.0292C109.743 52.0549 109.565 52.0035 109.432 52.0292C109.284 52.0677 109.062 52.1448 109.077 52.2219C109.092 52.6074 109.092 52.9929 109.225 53.3655C109.462 54.0465 109.802 54.689 110.29 55.3186C110.971 56.2052 111.4 57.1818 112.036 58.0812C113.383 60.0086 114.73 61.936 116.224 63.7992C116.742 64.4545 119.628 68.4507 119.598 68.8618C120.412 68.8104 120.678 69.1445 120.841 69.6713C120.93 69.9412 121.27 70.1853 121.492 70.4423C121.552 70.4295 121.611 70.4038 121.67 70.3909C121.936 69.5685 122.41 70.5323 122.972 71.1362C122.987 71.1105 123.017 71.0848 123.031 71.0462C123.239 71.1362 123.475 71.2004 123.668 71.3032C123.875 71.4189 124.023 71.5987 124.215 71.7272C124.955 72.2027 125.784 72.1256 126.302 71.5473C126.494 71.3289 126.716 71.1362 127.012 70.9691C127.175 71.4959 126.849 71.8943 126.524 72.2541C125.828 73.025 124.408 73.3334 123.135 73.0379C120.989 72.5496 119.539 71.2518 118.03 70.0568C117.97 70.0825 117.911 70.1211 117.852 70.1468C118.178 70.4937 118.518 70.8535 118.917 71.2647C118.755 71.1747 118.636 71.1233 118.533 71.0462C116.239 69.5172 114.508 67.6155 112.747 65.7138Z" fill="black"/>
<path d="M45.874 81.8155V82.4066H42.5889V78.5903H45.7852V79.1942H43.4028V80.1837H45.5189V80.7619H43.4028V81.8155H45.874Z" fill="black"/>
<path d="M50.0321 82.328C49.7213 82.2509 49.4697 82.1353 49.2773 81.9939L49.5585 81.4414C49.7361 81.5699 49.9581 81.6598 50.2244 81.7369C50.4908 81.814 50.7424 81.8526 51.0087 81.8526C51.3343 81.8526 51.5711 81.8012 51.7338 81.7112C51.8966 81.6213 51.9706 81.5056 51.9706 81.3514C51.9706 81.2486 51.9262 81.1587 51.8374 81.0816C51.7486 81.0045 51.6302 80.9531 51.4971 80.9146C51.3639 80.876 51.1715 80.8246 50.9347 80.7732C50.5944 80.709 50.328 80.6319 50.1208 80.5676C49.9137 80.5034 49.7361 80.3877 49.5881 80.2464C49.4401 80.105 49.3661 79.8995 49.3661 79.6553C49.3661 79.4497 49.4253 79.257 49.5585 79.0771C49.6917 78.9101 49.8841 78.7687 50.1504 78.6659C50.4168 78.5631 50.7424 78.5117 51.1271 78.5117C51.3935 78.5117 51.6598 78.5374 51.9114 78.6017C52.163 78.6659 52.3997 78.743 52.5773 78.8458L52.3258 79.3983C52.1334 79.2955 51.9262 79.2313 51.719 79.1799C51.5119 79.1285 51.3047 79.1028 51.1123 79.1028C50.7868 79.1028 50.55 79.1542 50.402 79.2441C50.2392 79.3341 50.1652 79.4626 50.1652 79.6168C50.1652 79.7196 50.2096 79.8095 50.2984 79.8866C50.3872 79.9508 50.5056 80.0151 50.6388 80.0537C50.772 80.0922 50.9643 80.1436 51.2011 80.195C51.5267 80.2592 51.793 80.3235 52.0002 80.4006C52.2074 80.4777 52.3849 80.5805 52.5329 80.7218C52.6809 80.8632 52.7549 81.0687 52.7549 81.3129C52.7549 81.5185 52.6957 81.7112 52.5625 81.8783C52.4293 82.0453 52.237 82.1867 51.9706 82.2895C51.7042 82.3923 51.3787 82.4436 50.9939 82.4436C50.6832 82.4565 50.3576 82.4179 50.0321 82.328Z" fill="black"/>
<path d="M57.2984 79.1942H55.8481V78.5903H59.5773V79.1942H58.1122V82.4066H57.2984V79.1942Z" fill="black"/>
<path d="M66.9614 78.5903V82.4066H66.1475V80.7747H63.8686V82.4066H63.0547V78.5903H63.8686V80.1708H66.1475V78.5903H66.9614Z" fill="black"/>
<path d="M74.3013 81.8155V82.4066H71.0161V78.5903H74.2125V79.1942H71.83V80.1837H73.9461V80.7619H71.83V81.8155H74.3013Z" fill="black"/>
<path d="M78.9772 79.1942H77.5122V78.5903H81.2413V79.1942H79.7911V82.4066H78.9772V79.1942Z" fill="black"/>
<path d="M85.5478 78.5903H84.7339V82.3937H85.5478V78.5903Z" fill="black"/>
<path d="M90.4311 82.1998C90.0759 82.0327 89.7948 81.8014 89.5876 81.5059C89.3804 81.2104 89.2769 80.8763 89.2769 80.5037C89.2769 80.131 89.3804 79.7969 89.5876 79.5014C89.7948 79.2059 90.0759 78.9746 90.4311 78.8075C90.7862 78.6405 91.1858 78.5505 91.6297 78.5505C91.9849 78.5505 92.3105 78.6019 92.6064 78.7176C92.9024 78.8204 93.1539 78.9874 93.3611 79.193L92.8284 79.617C92.5176 79.3215 92.1181 79.1673 91.6593 79.1673C91.3634 79.1673 91.0822 79.2187 90.8454 79.3344C90.6087 79.45 90.4163 79.6042 90.2831 79.8098C90.1499 80.0154 90.076 80.2467 90.076 80.5037C90.076 80.7607 90.1499 80.9919 90.2831 81.1975C90.4163 81.4031 90.6087 81.5573 90.8454 81.673C91.0822 81.7886 91.3486 81.84 91.6593 81.84C92.1181 81.84 92.5176 81.6858 92.8284 81.3903L93.3611 81.8271C93.1539 82.0327 92.9024 82.1869 92.6064 82.3026C92.3105 82.4054 91.9849 82.4696 91.6149 82.4696C91.1858 82.4568 90.7862 82.3668 90.4311 82.1998Z" fill="black"/>
<path d="M102.373 81.8027C102.699 81.8027 102.98 81.7513 103.217 81.6485C103.468 81.5457 103.646 81.3915 103.779 81.1859C103.912 80.9932 103.971 80.7619 103.971 80.492C103.971 80.2351 103.912 80.0038 103.779 79.7982C103.646 79.6054 103.453 79.4512 103.217 79.3356C102.965 79.2328 102.684 79.1814 102.373 79.1814H101.308V81.7898H102.373V81.8027ZM100.494 78.5903H102.417C102.891 78.5903 103.305 78.6674 103.66 78.8216C104.03 78.9758 104.312 79.2071 104.504 79.4898C104.711 79.7725 104.8 80.1066 104.8 80.492C104.8 80.8647 104.696 81.1988 104.504 81.4943C104.297 81.777 104.016 82.0083 103.66 82.1625C103.29 82.3167 102.876 82.3937 102.417 82.3937H100.494V78.5903Z" fill="black"/>
<path d="M111.829 81.8155V82.4066H108.544V78.5903H111.74V79.1942H109.358V80.1837H111.474V80.7619H109.358V81.8155H111.829Z" fill="black"/>
<path d="M119.509 78.5903V82.4066H118.843L116.431 79.8239V82.4066H115.617V78.5903H116.283L118.71 81.1731V78.5903H119.509Z" fill="black"/>
<path d="M124.452 79.1942H123.001V78.5903H126.731V79.1942H125.266V82.4066H124.452V79.1942Z" fill="black"/>
<path d="M131.022 78.5903H130.208V82.3937H131.022V78.5903Z" fill="black"/>
<path d="M135.461 82.328C135.15 82.2509 134.899 82.1353 134.707 81.9939L134.988 81.4414C135.165 81.5699 135.387 81.6598 135.654 81.7369C135.92 81.814 136.172 81.8526 136.438 81.8526C136.763 81.8526 137 81.8012 137.163 81.7112C137.326 81.6213 137.4 81.5056 137.4 81.3514C137.4 81.2486 137.355 81.1587 137.267 81.0816C137.178 81.0045 137.059 80.9531 136.926 80.9146C136.793 80.876 136.601 80.8246 136.364 80.7732C136.024 80.709 135.757 80.6319 135.55 80.5676C135.343 80.5034 135.165 80.3877 135.017 80.2464C134.869 80.105 134.795 79.8995 134.795 79.6553C134.795 79.4497 134.855 79.257 134.988 79.0771C135.121 78.9101 135.313 78.7687 135.58 78.6659C135.846 78.5631 136.172 78.5117 136.556 78.5117C136.823 78.5117 137.089 78.5374 137.341 78.6017C137.592 78.6659 137.829 78.743 138.006 78.8458L137.755 79.3983C137.563 79.2955 137.355 79.2313 137.148 79.1799C136.941 79.1285 136.734 79.1028 136.542 79.1028C136.216 79.1028 135.979 79.1542 135.831 79.2441C135.668 79.3341 135.594 79.4626 135.594 79.6168C135.594 79.7196 135.639 79.8095 135.728 79.8866C135.816 79.9508 135.935 80.0151 136.068 80.0537C136.201 80.0922 136.394 80.1436 136.63 80.195C136.956 80.2592 137.222 80.3235 137.429 80.4006C137.637 80.4777 137.814 80.5805 137.962 80.7218C138.11 80.8632 138.184 81.0687 138.184 81.3129C138.184 81.5185 138.125 81.7112 137.992 81.8783C137.859 82.0453 137.666 82.1867 137.4 82.2895C137.133 82.3923 136.808 82.4436 136.423 82.4436C136.112 82.4565 135.787 82.4179 135.461 82.328Z" fill="black"/>
<path d="M142.728 79.1942H141.277V78.5903H145.006V79.1942H143.541V82.4066H142.728V79.1942Z" fill="black"/>
<path d="M151.059 79.387C150.881 79.2585 150.6 79.1942 150.245 79.1942H149.298V80.7105H150.245C150.6 80.7105 150.866 80.6462 151.059 80.5177C151.236 80.3892 151.34 80.1965 151.34 79.9524C151.34 79.7082 151.251 79.5155 151.059 79.387ZM151.355 82.4066L150.452 81.2887C150.408 81.2887 150.363 81.2887 150.289 81.2887H149.298V82.3937H148.484V78.5903H150.289C150.674 78.5903 151 78.6417 151.281 78.7574C151.562 78.8602 151.784 79.0272 151.932 79.22C152.08 79.4255 152.154 79.6697 152.154 79.9395C152.154 80.2222 152.08 80.4663 151.917 80.6848C151.754 80.8904 151.532 81.0446 151.222 81.1474L152.228 82.3937H151.355V82.4066Z" fill="black"/>
<path d="M157.599 81.0574V82.4066H156.785V81.0703L155.069 78.5903H155.942L157.229 80.4535L158.517 78.5903H159.316L157.599 81.0574Z" fill="black"/>
</svg>
